# xmcd
#
# Track frame offsets: 
#        150
#        34109
#        50679
#        74446
#        101745
#        128196
#        151321
#        175548
#
# Disc length: 2765 seconds
#
# Revision: 6
# Processed by: cddbd v1.5.2PL0 Copyright (c) Steve Scherf et al.
# Submitted via: ExactAudioCopyFreeDBPlugin 1.0
#
DISCID=680acb08
DTITLE=Harold Melvin and The Blue Notes - 1975 - Wake Up Everybody
DYEAR=1975
DGENRE=Soul
TTITLE0=Wake Up Everybody
TTITLE1=Keep On Lovin' You
TTITLE2=You Know How To Make Me Feel So Good
TTITLE3=Don't Leave Me This Way
TTITLE4=Tell The World How I Feel About 'Cha Baby
TTITLE5=To Be Free To Be Who We Are
TTITLE6=I'm Searching For A Love
TTITLE7=Don't Leave Me This Way (A Tom Moulton Mix)
EXTD=(c) 1975 Sony Music Entertainment Inc.
EXTT0=
EXTT1=
EXTT2=
EXTT3=
EXTT4=
EXTT5=
EXTT6=
EXTT7=Bonus track
PLAYORDER=
